<?xml version="1.0" standalone="no"?>
<!DOCTYPE svg PUBLIC "-//W3C//DTD SVG 20010904//EN"
 "http://www.w3.org/TR/2001/REC-SVG-20010904/DTD/svg10.dtd">
<svg version="1.0" xmlns="http://www.w3.org/2000/svg"
 width="300.000000pt" height="322.000000pt" viewBox="0 0 300.000000 322.000000"
 preserveAspectRatio="xMidYMid meet">
<metadata>
Created by potrace 1.10, written by Peter Selinger 2001-2011
</metadata>
<g transform="translate(0.000000,322.000000) scale(0.100000,-0.100000)"
fill="#ffffff" stroke="none">
<path d="M0 2590 c0 -595 1 -629 18 -623 9 3 37 15 60 25 24 11 46 18 48 15 5
-5 -21 -178 -37 -250 -6 -27 -8 -51 -5 -54 3 -4 6 4 6 16 0 12 4 20 9 17 4 -3
6 -16 4 -29 -6 -33 -43 -31 -43 3 0 14 -9 36 -20 50 -11 14 -20 33 -20 42 0 9
-5 20 -10 23 -7 4 -9 -274 -8 -837 l3 -843 73 -8 c70 -8 76 -6 139 25 50 24
74 44 97 78 59 86 104 113 216 133 16 3 8 5 -20 6 -35 2 -41 4 -25 11 19 8 19
9 1 9 -15 1 -16 4 -6 16 10 13 9 15 -9 15 -11 0 -21 5 -21 11 0 7 9 9 23 5 42
-13 177 -18 177 -7 0 6 -9 11 -21 11 -25 0 -59 17 -59 30 0 5 21 18 46 29 47
21 75 17 88 -11 3 -7 3 0 1 16 -3 17 2 35 12 45 15 15 15 16 0 19 -11 2 -16
12 -15 27 2 24 28 24 28 -1 0 -15 19 -18 35 -6 15 10 11 47 -9 76 -9 14 -16
31 -16 39 0 7 -12 20 -27 28 -49 24 -103 70 -103 87 1 14 4 13 19 -6 11 -12
24 -22 29 -22 6 0 12 -5 14 -11 2 -6 13 -10 23 -8 19 4 19 5 -3 27 -12 12 -19
22 -14 22 12 0 106 -51 117 -64 6 -6 34 -29 62 -51 29 -21 56 -47 59 -57 3
-10 12 -18 20 -18 8 0 14 -5 14 -11 0 -11 -40 -8 -72 5 -11 5 -27 -2 -49 -23
-17 -17 -38 -31 -45 -31 -8 0 -14 -5 -14 -11 0 -5 4 -8 9 -4 5 3 12 1 16 -5 3
-5 2 -10 -3 -10 -5 0 -7 -11 -5 -25 6 -26 -1 -31 -84 -56 -53 -15 -56 -30 -5
-22 l37 6 -25 -28 -25 -28 25 6 c14 4 33 7 43 7 9 0 17 6 17 13 0 7 15 21 33
30 l32 17 -40 -5 -40 -6 45 21 c25 11 53 23 63 26 14 5 15 9 5 21 -15 19 -19
43 -7 43 5 0 9 7 9 15 0 17 35 20 46 4 5 -8 8 -8 14 0 10 17 72 -6 145 -55 33
-22 78 -53 100 -67 22 -15 56 -43 77 -62 20 -19 49 -41 65 -48 37 -15 93 -62
93 -77 0 -6 3 -9 8 -6 4 2 18 -2 32 -10 l25 -15 -24 7 c-16 4 -21 3 -17 -5 4
-6 1 -11 -8 -11 -8 0 -17 6 -20 13 -3 9 -8 8 -18 -3 -14 -16 -100 -21 -114 -7
-5 4 -1 5 8 2 16 -6 34 20 19 29 -5 3 -33 -1 -62 -8 -30 -8 -56 -12 -58 -10
-2 2 1 4 8 4 7 0 9 5 4 13 -4 6 -6 21 -5 32 2 19 2 19 -9 1 -6 -10 -20 -27
-30 -37 -26 -26 -19 -34 43 -47 96 -19 134 -24 118 -13 -9 6 -10 11 -3 11 19
0 43 -12 39 -19 -5 -7 164 -65 279 -96 33 -9 92 -28 130 -43 39 -14 84 -27
100 -28 17 -1 50 -5 75 -9 25 -3 53 -6 63 -6 9 0 17 -4 17 -10 0 -5 109 -9
270 -9 l271 0 -7 62 c-3 35 -12 74 -18 88 -12 26 -2 41 127 172 20 21 37 46
37 55 0 22 39 103 50 103 4 0 8 6 7 12 -2 57 4 77 20 71 13 -5 15 -2 9 18 -5
13 -7 31 -7 39 1 8 4 50 7 93 5 62 9 77 20 73 12 -5 12 -2 -1 17 -8 13 -23 73
-34 135 -11 61 -22 116 -26 122 -3 5 -2 10 4 10 5 0 11 -6 14 -12 2 -7 2 -2 0
12 -3 14 -8 27 -12 30 -10 7 -49 134 -61 200 -10 59 -9 456 2 418 3 -13 7 -39
7 -58 1 -19 6 -42 12 -50 12 -18 5 63 -17 190 -20 110 -31 187 -42 280 -8 66
-30 135 -62 192 -6 10 -10 25 -10 33 0 8 -4 15 -10 15 -5 0 -10 5 -10 11 0 11
-60 139 -70 149 -16 16 -70 100 -70 109 0 6 -8 19 -18 29 -10 10 -28 34 -41
55 -12 20 -27 37 -32 37 -5 0 -9 7 -9 15 0 8 -4 15 -9 15 -5 0 -13 10 -16 21
-10 31 -161 186 -207 211 -21 12 -38 25 -38 28 0 10 -169 90 -220 105 l-25 8
20 -23 20 -23 -22 11 c-12 7 -23 15 -25 20 -8 20 -79 51 -152 67 -63 14 -86
15 -120 6 -30 -9 -54 -9 -91 -1 -104 23 -147 22 -243 -3 -99 -26 -108 -24
-104 25 2 19 -2 28 -13 28 -8 0 -15 -4 -15 -9 0 -13 -50 -71 -61 -71 -5 0 -6
18 -3 40 l7 40 -497 0 -496 0 0 -630z m967 593 c-4 -3 -7 0 -7 7 0 7 3 10 7 7
3 -4 3 -10 0 -14z m-96 -76 c-13 -13 -15 15 -3 53 7 24 7 23 10 -9 2 -18 -1
-38 -7 -44z m1042 -67 c20 -8 37 -20 37 -28 0 -12 -4 -12 -22 2 -13 9 -33 21
-45 26 -13 5 -23 12 -23 16 0 3 3 4 8 2 4 -2 24 -10 45 -18z m-1726 -2 c-20
-46 -34 -68 -44 -68 -7 0 -10 -6 -7 -14 3 -7 -3 -16 -13 -20 -10 -3 -23 -8
-29 -11 -7 -4 -13 8 -16 32 -4 32 0 41 21 58 14 11 34 21 44 21 9 1 20 4 24 8
11 11 25 6 20 -6z m1650 -45 c-4 -3 -10 -3 -14 0 -3 4 0 7 7 7 7 0 10 -3 7 -7z
m210 -40 c-4 -3 -10 -3 -14 0 -3 4 0 7 7 7 7 0 10 -3 7 -7z m-640 -110 c-4 -3
-7 0 -7 7 0 7 3 10 7 7 3 -4 3 -10 0 -14z m-840 -310 c-4 -3 -7 0 -7 7 0 7 3
10 7 7 3 -4 3 -10 0 -14z m303 -4 c0 -6 -4 -8 -9 -5 -5 3 -11 -3 -14 -15 -4
-16 -3 -18 9 -8 20 16 17 2 -7 -38 -23 -36 -38 -39 -19 -4 6 12 7 21 2 21 -5
0 -14 -12 -21 -26 -9 -21 -14 -24 -26 -14 -21 17 -19 31 11 65 19 22 24 25 20
10 -5 -16 -2 -15 17 6 21 25 37 29 37 8z m-280 -19 c0 -5 -4 -10 -10 -10 -5 0
-10 5 -10 10 0 6 5 10 10 10 6 0 10 -4 10 -10z m-49 -83 c-10 -9 -11 -8 -5 6
3 10 9 15 12 12 3 -3 0 -11 -7 -18z m92 3 c-3 -12 0 -20 7 -20 9 0 9 -4 2 -12
-6 -7 -13 -30 -17 -51 -8 -42 -16 -50 -39 -41 -29 11 -19 53 31 137 9 15 21 6
16 -13z m106 -30 c-6 -16 -15 -30 -19 -30 -5 0 -4 14 1 30 6 17 15 30 19 30 5
0 4 -13 -1 -30z m71 -5 c-4 -11 -15 -19 -25 -18 -12 1 -15 -4 -12 -18 3 -11 0
-19 -7 -19 -23 0 -25 12 -9 46 12 24 22 33 39 32 18 -2 20 -6 14 -23z m104
-43 c-10 -22 -12 -62 -3 -62 3 0 13 19 22 42 9 23 19 39 22 36 3 -3 -4 -31
-16 -62 -16 -43 -25 -56 -36 -51 -13 4 -14 3 -4 -9 10 -12 9 -15 -8 -13 -28 2
-37 34 -17 56 9 10 16 28 16 40 0 29 22 71 28 53 2 -7 0 -20 -4 -30z m136 -7
c-14 -41 -46 -75 -71 -75 -16 0 -16 4 4 41 12 23 29 44 37 47 8 3 19 12 23 19
15 25 19 5 7 -32z m206 -2 c-9 -69 -19 -103 -37 -118 -17 -16 -18 -16 -25 9
-5 20 2 40 27 81 18 30 34 55 36 55 1 0 1 -12 -1 -27z m-790 -8 c-6 -25 8 -36
17 -12 2 6 7 9 10 6 4 -3 -2 -23 -13 -44 -11 -22 -19 -44 -17 -49 2 -5 9 5 16
22 8 18 18 32 23 32 9 0 0 -71 -11 -80 -3 -3 -7 -12 -8 -20 -4 -29 -21 -92
-27 -97 -10 -10 -7 44 4 72 8 21 6 31 -9 51 l-19 24 -6 -31 c-3 -17 -15 -52
-26 -77 -15 -34 -23 -43 -30 -33 -5 9 -3 19 6 28 8 8 14 23 14 34 0 23 49 169
63 187 15 19 20 14 13 -13z m394 16 c0 -6 -5 -13 -10 -16 -8 -5 -7 -11 1 -21
9 -11 8 -19 -7 -37 -26 -31 -35 -36 -51 -30 -7 3 -13 0 -13 -6 0 -6 -5 -11
-11 -11 -14 0 -6 48 17 96 13 27 22 34 45 34 16 0 29 -4 29 -9z m-317 -46 c-3
-9 -8 -14 -10 -11 -3 3 -2 9 2 15 9 16 15 13 8 -4z m517 -5 c0 -5 -5 -10 -11
-10 -5 0 -7 5 -4 10 3 6 8 10 11 10 2 0 4 -4 4 -10z m-423 -17 c-4 -3 -7 0 -7
7 0 7 3 10 7 7 3 -4 3 -10 0 -14z m102 5 c0 -7 -4 -22 -9 -33 -7 -16 -8 -14
-7 12 1 18 5 33 10 33 4 0 7 -6 6 -12z m365 -45 c-8 -34 -24 -54 -24 -30 0 15
20 57 28 57 1 0 -1 -12 -4 -27z m-470 -42 c-4 -17 -11 -31 -16 -31 -6 0 -8 13
-4 31 3 17 6 39 6 48 1 15 1 15 10 -1 6 -9 7 -30 4 -47z m528 37 c-7 -7 -12
-8 -12 -2 0 14 12 26 19 19 2 -3 -1 -11 -7 -17z m108 -32 c-12 -32 -20 -34
-13 -3 6 21 6 21 -15 -3 -27 -32 -28 -15 -1 29 18 29 23 32 30 19 6 -10 5 -27
-1 -42z m50 25 c0 -6 -5 -13 -10 -16 -6 -4 -8 -11 -4 -16 10 -17 -5 -59 -21
-59 -18 0 -18 -3 1 53 14 42 34 63 34 38z m87 -8 c-4 -3 -7 0 -7 7 0 7 3 10 7
7 3 -4 3 -10 0 -14z m-10 -55 c-3 -7 -5 -2 -5 12 0 14 2 19 5 13 2 -7 2 -19 0
-25z m210 0 c-3 -7 -5 -2 -5 12 0 14 2 19 5 13 2 -7 2 -19 0 -25z m-254 7 c-3
-9 -8 -14 -10 -11 -3 3 -2 9 2 15 9 16 15 13 8 -4z m-973 -9 c0 -3 -5 -8 -12
-12 -7 -4 -8 -3 -4 4 7 12 16 16 16 8z m1420 -318 c0 -5 8 -8 19 -8 10 0 24
-7 31 -15 7 -9 20 -13 29 -10 9 2 53 5 98 6 45 2 80 6 77 11 -3 4 0 8 6 8 6 0
13 -7 16 -15 4 -8 18 -15 33 -15 24 0 22 -2 -17 -26 -31 -19 -52 -25 -72 -21
-15 4 -43 2 -62 -3 -22 -7 -34 -7 -36 0 -3 7 -9 6 -19 -2 -8 -7 -25 -17 -37
-23 -15 -7 -23 -23 -27 -55 -3 -25 -14 -65 -23 -89 -23 -61 -20 -114 10 -206
14 -44 26 -93 26 -108 -1 -30 -59 -116 -79 -117 -7 0 -17 -9 -23 -20 -6 -11
-18 -20 -26 -20 -8 0 -12 -4 -9 -10 3 -5 16 -10 29 -10 12 0 35 -13 50 -29 34
-35 61 -44 77 -25 6 8 18 14 26 14 7 0 16 7 19 15 4 8 14 15 23 15 14 1 14 2
-2 14 -10 8 -14 17 -9 20 11 7 6 161 -5 179 -4 6 -7 49 -8 94 l-1 83 33 0 c22
0 33 -5 33 -14 0 -19 55 -39 115 -41 40 -1 60 -8 100 -38 42 -30 50 -41 49
-64 -1 -15 -3 -30 -4 -33 -1 -3 -2 -12 -1 -22 1 -9 -3 -19 -9 -23 -5 -3 -10
-39 -10 -80 0 -41 -4 -76 -9 -80 -5 -3 -9 -28 -8 -55 1 -28 -2 -50 -6 -50 -5
0 -5 -5 -2 -10 3 -6 -5 -14 -19 -19 -13 -6 -28 -16 -33 -23 -4 -7 -20 -21 -35
-31 -16 -10 -28 -23 -28 -31 0 -7 -11 -19 -25 -26 -26 -14 -34 -45 -12 -53 9
-4 9 -7 -1 -15 -7 -5 -14 -23 -14 -41 -1 -26 -7 -34 -44 -53 -42 -21 -44 -21
-64 -3 -30 27 -27 73 6 85 33 13 34 13 35 -7 1 -17 2 -17 6 0 2 9 11 17 20 17
10 0 14 -6 10 -20 -3 -11 -2 -22 3 -25 14 -9 17 43 4 73 -7 17 -22 33 -34 37
-12 4 -23 18 -26 34 -11 52 -129 70 -203 30 -31 -17 -37 -17 -52 -4 -14 14
-24 12 -92 -15 -41 -16 -84 -30 -95 -30 -50 0 -142 -62 -142 -96 0 -33 21 -35
55 -4 82 74 331 97 353 32 5 -16 -40 -32 -88 -32 -31 0 -42 -5 -51 -22 -7 -13
-17 -26 -23 -30 -6 -4 -7 -11 -2 -15 4 -4 13 -1 19 8 7 9 33 18 59 21 37 4 47
2 51 -11 2 -10 29 -23 70 -34 l65 -19 4 -41 c4 -35 0 -50 -27 -87 -17 -25 -36
-45 -43 -45 -6 0 -17 -6 -24 -13 -6 -6 -16 -12 -21 -12 -5 0 -15 -7 -24 -15
-8 -8 -19 -13 -24 -9 -6 3 -15 1 -22 -4 -26 -20 -147 -62 -181 -62 -19 0 -55
9 -78 21 -49 23 -50 24 -137 69 -36 19 -72 35 -82 35 -9 1 -29 11 -44 23 -15
12 -32 22 -36 22 -14 0 -150 99 -182 131 -15 16 -29 29 -32 29 -2 0 -30 25
-62 55 -32 30 -61 55 -64 55 -20 0 -84 211 -98 325 -17 126 -33 320 -32 385
l0 55 83 77 c51 48 92 77 106 78 25 0 58 17 146 74 33 22 73 41 89 42 l29 4
-24 -33 c-14 -17 -41 -41 -60 -52 -62 -35 -99 -69 -90 -82 6 -10 21 -8 66 8
67 23 226 38 226 21 0 -5 -21 -17 -46 -26 -42 -14 -96 -48 -131 -82 -6 -6 -11
-26 -11 -43 1 -31 3 -32 35 -28 18 3 43 11 55 19 21 14 23 13 38 -16 13 -26
23 -32 67 -40 28 -5 63 -6 77 -2 30 7 56 52 56 96 0 39 8 38 50 -5 54 -56 71
-40 23 24 -14 20 -20 30 -13 24 8 -7 22 -13 31 -13 14 0 16 6 9 36 -7 31 -5
36 13 44 47 20 61 38 50 63 -9 19 -22 26 -64 31 -29 4 -57 10 -62 13 -10 6 60
56 71 50 4 -3 39 -2 77 2 97 8 245 8 245 -1z m-493 -44 c2 -6 -10 -8 -32 -6
-19 2 -32 8 -29 14 8 12 56 6 61 -8z m-1210 -161 c-4 -3 -7 0 -7 7 0 7 3 10 7
7 3 -4 3 -10 0 -14z m1154 -56 c-13 -13 -26 -3 -16 12 3 6 11 8 17 5 6 -4 6
-10 -1 -17z m869 -107 c-20 -13 -63 -13 -55 0 3 6 21 10 38 10 24 0 28 -3 17
-10z m-1999 -109 c-8 -14 -8 -20 1 -23 7 -3 9 -11 4 -24 -8 -17 -9 -16 -17 9
-8 29 9 94 18 70 2 -7 0 -21 -6 -32z m133 -132 c-3 -5 -1 -9 5 -9 5 0 12 6 14
13 3 7 6 5 6 -5 1 -19 -19 -68 -28 -68 -16 1 -33 19 -27 29 13 20 -5 12 -25
-11 -17 -21 -18 -21 -12 -3 13 38 30 65 36 58 4 -3 7 -1 7 5 0 6 7 9 15 6 8
-4 12 -10 9 -15z m-120 -48 c-8 -16 -22 -35 -30 -42 -14 -12 -14 -14 3 -20 16
-7 16 -8 1 -8 -29 -2 -28 15 3 57 36 49 43 53 23 13z m-57 -78 c-4 -3 -10 -3
-14 0 -3 4 0 7 7 7 7 0 10 -3 7 -7z m3 -43 c-12 -12 -24 -19 -26 -17 -3 3 5
14 17 26 29 27 37 19 9 -9z m550 -9 c0 -27 -15 -49 -26 -39 -7 8 8 68 17 68 5
0 9 -13 9 -29z m-230 -15 c0 -8 -5 -18 -11 -22 -8 -5 -8 -8 0 -14 8 -4 1 -17
-20 -38 -31 -30 -49 -40 -49 -26 0 3 14 26 30 51 17 24 30 48 30 54 0 5 5 9
10 9 6 0 10 -6 10 -14z m180 -114 c0 -4 10 -12 22 -17 12 -6 23 -16 26 -22 7
-24 -24 -13 -53 17 -22 23 -25 30 -12 30 9 0 17 -3 17 -8z m1177 -229 c-4 -3
-7 0 -7 7 0 7 3 10 7 7 3 -4 3 -10 0 -14z m540 -85 c-3 -8 -6 -5 -6 6 -1 11 2
17 5 13 3 -3 4 -12 1 -19z m61 -62 c0 -21 -7 -41 -19 -52 -10 -9 -19 -12 -19
-6 0 6 4 14 10 17 5 3 9 18 9 33 -3 41 0 54 10 48 5 -3 9 -21 9 -40z m-1888 4
c0 -20 -5 -30 -15 -30 -8 0 -15 5 -15 10 0 6 5 10 10 10 6 0 10 9 10 20 0 11
2 20 5 20 3 0 5 -13 5 -30z m-40 -20 c0 -5 -4 -10 -10 -10 -5 0 -10 5 -10 10
0 6 5 10 10 10 6 0 10 -4 10 -10z m403 -37 c-7 -2 -19 -2 -25 0 -7 3 -2 5 12
5 14 0 19 -2 13 -5z m1417 -10 c-1 -21 -13 -53 -21 -53 -5 0 -7 10 -5 23 3 12
5 25 5 30 1 4 6 7 11 7 6 0 10 -3 10 -7z m-1980 -173 c0 -13 -60 -43 -68 -34
-4 4 -2 8 3 11 6 2 21 10 35 17 14 8 26 14 28 15 1 1 2 -3 2 -9z"/>
<path d="M790 2470 c-6 -11 -7 -20 -2 -20 6 0 12 9 15 20 3 11 3 20 1 20 -2 0
-8 -9 -14 -20z"/>
<path d="M590 2330 c0 -7 3 -10 7 -7 3 4 3 10 0 14 -4 3 -7 0 -7 -7z"/>
<path d="M1200 2250 c0 -7 3 -10 7 -7 3 4 3 10 0 14 -4 3 -7 0 -7 -7z"/>
<path d="M450 2290 c0 -7 3 -10 7 -7 3 4 3 10 0 14 -4 3 -7 0 -7 -7z"/>
<path d="M815 2320 c-3 -5 -1 -10 4 -10 6 0 11 5 11 10 0 6 -2 10 -4 10 -3 0
-8 -4 -11 -10z"/>
<path d="M1552 1740 c0 -14 2 -19 5 -12 2 6 2 18 0 25 -3 6 -5 1 -5 -13z"/>
<path d="M1310 1460 c0 -5 5 -10 10 -10 6 0 10 5 10 10 0 6 -4 10 -10 10 -5 0
-10 -4 -10 -10z"/>
<path d="M1275 1450 c3 -5 10 -10 16 -10 5 0 9 5 9 10 0 6 -7 10 -16 10 -8 0
-12 -4 -9 -10z"/>
<path d="M1602 1135 c-6 -13 -7 -27 -3 -30 5 -3 11 1 14 9 4 9 19 14 41 13 19
0 38 2 42 5 13 14 -9 28 -45 28 -30 0 -40 -5 -49 -25z"/>
<path d="M783 643 c4 -3 10 -3 14 0 3 4 0 7 -7 7 -7 0 -10 -3 -7 -7z"/>
<path d="M783 623 c4 -3 10 -3 14 0 3 4 0 7 -7 7 -7 0 -10 -3 -7 -7z"/>
<path d="M875 490 c-3 -6 1 -7 9 -4 18 7 21 14 7 14 -6 0 -13 -4 -16 -10z"/>
<path d="M934 448 c-5 -8 -2 -9 10 -5 14 5 17 3 12 -8 -3 -9 3 -19 17 -26 12
-7 25 -16 28 -21 3 -5 13 -6 22 -3 12 5 8 13 -21 41 -38 36 -56 42 -68 22z"/>
<path d="M780 404 c0 -3 5 -14 11 -25 8 -16 5 -27 -12 -55 -23 -37 -20 -55 6
-34 8 7 24 10 36 7 17 -4 18 -3 8 9 -20 24 -5 26 42 4 24 -11 55 -20 69 -20
18 0 9 8 -37 31 -35 17 -72 44 -84 60 -18 26 -39 38 -39 23z"/>
<path d="M1204 298 c-4 -7 -3 -8 4 -4 7 4 12 9 12 12 0 8 -9 4 -16 -8z"/>
<path d="M1330 260 c-13 -8 -12 -10 3 -10 9 0 17 5 17 10 0 12 -1 12 -20 0z"/>
<path d="M885 250 c3 -5 11 -10 16 -10 6 0 7 5 4 10 -3 6 -11 10 -16 10 -6 0
-7 -4 -4 -10z"/>
<path d="M920 231 c0 -6 5 -13 10 -16 6 -3 10 1 10 9 0 9 -4 16 -10 16 -5 0
-10 -4 -10 -9z"/>
<path d="M986 161 c-3 -5 1 -11 9 -15 8 -3 15 -1 15 4 0 13 -18 22 -24 11z"/>
<path d="M1027 124 c3 -7 9 -14 14 -14 14 0 10 17 -5 23 -10 4 -13 1 -9 -9z"/>
<path d="M1045 90 c3 -5 10 -10 16 -10 5 0 9 5 9 10 0 6 -7 10 -16 10 -8 0
-12 -4 -9 -10z"/>
<path d="M1852 18 c3 -7 13 -15 24 -17 16 -3 17 -1 5 13 -16 19 -34 21 -29 4z"/>
</g>
</svg>
