<?xml version="1.0" standalone="no"?>
<!DOCTYPE svg PUBLIC "-//W3C//DTD SVG 20010904//EN"
 "http://www.w3.org/TR/2001/REC-SVG-20010904/DTD/svg10.dtd">
<svg version="1.0" xmlns="http://www.w3.org/2000/svg"
 width="1350.000000pt" height="1449.000000pt" viewBox="0 0 1350.000000 1449.000000"
 preserveAspectRatio="xMidYMid meet">
<metadata>
Created by potrace 1.10, written by Peter Selinger 2001-2011
</metadata>
<g transform="translate(0.000000,1449.000000) scale(0.100000,-0.100000)"
fill="#000000" stroke="none">
<path d="M0 11660 c0 -2535 2 -2830 15 -2830 9 0 30 6 48 13 18 8 56 20 85 27
30 7 102 37 162 66 59 30 117 54 127 54 11 0 28 9 37 19 21 23 69 42 84 32 18
-11 -14 -302 -45 -404 -7 -27 -16 -88 -18 -135 -2 -59 -12 -111 -29 -162 -14
-41 -26 -96 -26 -122 0 -26 -7 -72 -15 -103 -8 -33 -12 -75 -8 -103 4 -34 1
-58 -10 -79 -26 -49 -45 -154 -41 -222 2 -35 7 -67 10 -70 14 -14 34 37 34 85
0 36 8 68 24 100 l24 47 6 -59 c14 -121 -15 -292 -48 -281 -6 2 -18 22 -26 45
-8 23 -17 42 -20 42 -17 -1 -49 -41 -52 -65 -2 -16 -9 -30 -15 -33 -20 -6 -34
45 -27 97 9 66 -28 200 -70 250 -17 21 -39 52 -49 67 -9 16 -28 44 -41 62 -16
22 -29 59 -37 109 -12 72 -44 133 -70 133 -5 0 -9 -1520 -9 -3799 l0 -3799 73
-6 c39 -4 128 -10 197 -14 107 -6 133 -11 182 -35 32 -15 74 -27 95 -27 40 0
183 42 218 64 11 7 37 16 59 19 21 3 55 17 75 30 39 26 182 107 262 148 27 14
69 44 92 66 23 23 53 44 67 48 38 11 51 25 77 85 14 30 35 66 48 80 13 14 31
41 39 60 8 20 23 43 34 53 10 10 30 45 43 79 15 37 34 67 49 76 14 9 39 28 55
42 48 42 131 91 182 106 25 8 54 21 64 30 9 8 41 19 71 23 29 5 67 16 83 25
17 9 42 16 56 16 15 0 46 9 70 19 33 15 53 18 80 12 60 -14 189 14 189 41 0
22 -61 30 -190 25 -141 -6 -181 1 -140 23 14 7 39 9 66 5 36 -5 44 -3 53 13
13 25 2 35 -64 52 -70 18 -75 26 -35 58 43 36 33 53 -28 50 -92 -4 -142 40
-90 76 31 22 94 20 147 -4 24 -11 65 -20 91 -20 28 0 52 -6 59 -14 11 -13 73
-26 141 -29 33 -2 35 0 38 30 3 25 9 34 28 39 37 9 54 -2 54 -35 l0 -29 133
-4 c72 -2 146 0 163 5 89 22 55 74 -53 83 -105 9 -213 49 -213 80 0 8 -8 14
-18 14 -44 0 -54 45 -22 97 23 39 45 51 101 58 72 8 141 28 146 42 3 8 39 29
81 48 73 34 76 35 100 18 14 -10 41 -27 61 -38 23 -13 43 -35 56 -63 20 -43
40 -57 69 -46 31 12 8 72 -34 86 -10 3 -10 11 1 41 10 29 10 40 1 49 -23 23
-14 55 17 61 35 7 61 32 61 57 0 10 4 22 10 25 5 3 10 15 10 26 0 22 -35 39
-79 39 -61 0 -71 64 -17 115 19 17 36 43 38 56 2 16 11 25 26 27 39 6 53 -15
51 -74 -3 -68 17 -94 71 -94 29 0 49 10 89 41 56 45 61 57 31 84 -41 38 -9 62
38 29 31 -21 77 -15 77 11 0 12 -8 21 -20 23 -23 3 -49 38 -40 52 4 6 15 10
26 10 11 0 22 7 25 15 9 23 -16 46 -45 43 -20 -2 -27 -9 -29 -30 -4 -32 -9
-34 -40 -12 -16 11 -20 22 -16 38 3 15 -4 33 -25 59 -16 21 -32 50 -36 66 -3
15 -21 42 -40 60 -32 30 -34 35 -28 76 5 42 4 45 -29 65 -19 11 -54 43 -77 70
-39 46 -46 50 -87 50 -45 0 -113 22 -115 37 -4 42 -18 62 -45 63 -7 0 -36 11
-66 25 -58 26 -92 57 -102 92 -4 12 -20 38 -36 58 -32 40 -55 99 -45 115 17
28 66 -2 95 -58 6 -13 25 -28 41 -34 26 -9 30 -15 27 -41 -3 -34 8 -43 65 -52
31 -5 41 -13 57 -45 25 -49 44 -60 81 -47 27 11 75 4 147 -18 13 -4 22 -3 22
3 0 6 -9 13 -19 17 -11 3 -22 14 -25 23 -3 9 -19 25 -36 34 -19 11 -30 25 -30
39 0 28 -67 89 -98 89 -19 0 -23 5 -20 23 4 29 40 29 53 0 10 -23 32 -33 81
-33 16 0 51 -13 76 -29 25 -16 54 -32 65 -35 11 -4 28 -15 38 -26 9 -10 53
-31 97 -46 83 -27 108 -46 138 -104 10 -19 36 -46 57 -59 21 -14 52 -37 68
-52 17 -16 57 -40 89 -54 43 -19 82 -49 139 -106 55 -56 85 -79 103 -79 19 0
28 -9 40 -39 8 -21 29 -51 45 -65 28 -25 29 -31 23 -72 -7 -50 -11 -48 77 -44
60 2 73 -8 62 -48 -6 -24 -38 -38 -105 -47 -52 -7 -74 1 -125 46 -59 51 -155
63 -223 29 -22 -11 -44 -29 -50 -39 -5 -11 -26 -25 -45 -31 -41 -14 -69 -50
-60 -79 5 -15 0 -21 -25 -26 -17 -4 -40 -20 -53 -37 -20 -27 -26 -29 -65 -25
-56 6 -82 -1 -82 -22 0 -9 -7 -27 -17 -40 -15 -23 -15 -25 3 -38 23 -17 49
-13 49 7 0 18 60 31 74 17 20 -20 13 -47 -12 -47 -37 0 -39 -10 -12 -57 19
-31 23 -48 17 -60 -10 -19 0 -57 17 -68 20 -12 11 -22 -33 -39 -31 -12 -46
-24 -48 -39 -2 -15 -17 -27 -53 -41 -52 -20 -83 -22 -148 -10 -33 5 -42 3 -65
-19 -16 -16 -45 -29 -70 -33 -24 -4 -46 -12 -48 -19 -5 -13 -54 -36 -109 -53
-35 -10 -44 -37 -18 -50 17 -8 114 -2 223 14 36 5 49 3 60 -11 12 -15 6 -24
-59 -83 -40 -37 -87 -75 -104 -84 -18 -10 -30 -18 -27 -19 46 -8 170 -8 175 0
3 6 19 11 35 11 39 0 162 29 178 42 9 8 11 24 6 53 -5 39 -4 43 23 53 15 6 40
13 55 16 14 3 39 16 55 29 15 12 51 28 78 35 28 7 54 17 59 22 16 16 -5 30
-48 30 -31 0 -53 -8 -83 -30 l-42 -31 -52 17 -53 18 29 9 c17 5 37 16 46 23 8
8 22 14 30 14 8 0 31 16 50 36 32 34 36 35 83 29 27 -3 58 -11 69 -17 15 -8
18 -7 12 2 -4 7 -8 22 -9 34 -1 17 -9 22 -48 26 -56 7 -82 25 -52 37 35 13 92
8 112 -11 20 -17 22 -17 59 8 21 14 50 26 65 26 64 0 79 31 24 50 -21 7 -45
26 -61 51 -25 34 -27 43 -16 65 6 14 9 41 5 59 -6 31 -4 33 38 46 55 18 60 41
13 63 -58 28 -34 39 112 52 l72 6 26 -42 c29 -46 42 -47 65 -4 l17 29 105 0
106 -1 62 -42 c35 -23 71 -42 81 -42 9 0 39 -18 67 -39 27 -21 67 -48 90 -60
23 -12 52 -30 64 -41 70 -62 108 -89 148 -104 25 -9 65 -33 90 -52 25 -19 77
-55 115 -80 39 -26 92 -67 118 -93 29 -28 94 -70 165 -107 l117 -60 30 -62
c22 -47 36 -64 55 -68 49 -11 71 -24 80 -49 5 -14 20 -29 33 -34 14 -5 27 -19
30 -30 3 -12 21 -27 43 -36 23 -9 46 -28 56 -45 14 -25 24 -30 55 -30 21 -1
49 -7 63 -15 14 -8 35 -14 47 -15 12 0 36 -13 53 -30 17 -16 45 -37 62 -46 17
-9 61 -46 98 -83 37 -36 79 -74 94 -85 23 -15 26 -23 21 -44 -4 -15 -7 -31 -8
-37 -1 -5 32 -10 80 -10 46 0 87 -5 93 -11 16 -16 2 -41 -36 -65 -41 -25 -42
-34 -8 -52 l26 -14 -46 -13 c-37 -10 -52 -10 -76 0 -22 9 -28 16 -21 23 16 16
13 44 -5 51 -44 17 -111 -8 -152 -56 l-24 -28 -151 2 c-112 2 -162 -1 -190
-12 l-38 -14 -35 39 c-19 22 -30 41 -24 43 7 3 18 -5 26 -17 20 -28 74 -28
100 0 16 17 16 22 4 29 -8 6 -23 10 -33 10 -10 0 -15 5 -12 10 9 15 43 12 105
-10 74 -26 113 -25 146 3 47 41 5 64 -58 31 -49 -25 -111 -11 -144 32 -30 39
-67 45 -105 15 -13 -10 -41 -24 -62 -30 -32 -11 -45 -10 -87 5 -49 18 -50 17
-77 -2 -54 -40 -123 -42 -123 -4 0 12 -12 22 -34 30 -53 17 -62 34 -37 66 16
20 18 31 11 45 -6 10 -8 29 -5 42 4 15 1 28 -10 37 -8 7 -17 11 -19 9 -6 -8
-36 -108 -36 -122 0 -21 -26 -40 -79 -57 -31 -10 -47 -21 -50 -35 -2 -11 -14
-35 -27 -55 -13 -19 -24 -49 -24 -68 0 -42 32 -56 116 -48 58 5 62 4 82 -24
19 -25 29 -29 84 -33 71 -6 153 -22 215 -44 31 -10 61 -12 113 -7 64 6 74 4
101 -15 26 -19 38 -21 83 -16 64 8 79 17 74 40 -2 15 -13 18 -52 19 -55 1 -69
17 -31 34 40 18 76 15 82 -7 6 -24 60 -51 103 -51 38 0 32 -15 -16 -35 -25
-10 -34 -20 -32 -32 3 -15 14 -18 58 -18 37 0 71 -7 100 -22 25 -12 74 -31
110 -42 36 -11 91 -31 124 -46 32 -14 81 -31 110 -37 28 -6 87 -28 131 -50 97
-48 163 -68 232 -68 40 0 55 -4 66 -20 18 -26 55 -38 95 -32 19 2 50 -2 70
-11 20 -8 73 -23 117 -32 105 -22 189 -52 211 -76 14 -16 31 -19 95 -19 67 0
80 -3 89 -19 7 -15 26 -21 77 -27 40 -4 93 -19 129 -35 34 -16 70 -29 78 -29
26 0 85 -28 118 -55 16 -14 38 -25 48 -25 11 0 35 -14 53 -30 30 -26 43 -30
90 -30 31 0 59 5 63 11 6 11 55 9 209 -7 77 -8 95 -13 95 -29 0 -8 7 -15 15
-15 9 0 30 -7 47 -16 36 -19 60 -5 38 21 -12 14 -11 18 1 26 24 15 43 10 79
-21 19 -16 45 -29 57 -30 12 0 38 -9 58 -21 34 -20 37 -21 71 -4 39 18 84 13
84 -10 0 -7 -5 -17 -10 -20 -6 -3 -10 -10 -10 -16 0 -5 466 -9 1224 -9 l1224
0 6 35 c4 20 5 39 2 44 -8 13 -26 131 -36 246 -27 285 -31 301 -89 378 -23 30
-41 65 -41 79 0 30 70 99 122 121 18 8 71 56 118 108 47 52 88 95 92 97 4 2
24 27 45 55 20 29 70 89 110 135 40 45 73 88 73 95 0 7 13 28 28 47 28 33 30
33 61 21 38 -16 42 -13 50 36 5 28 15 43 41 61 32 21 35 28 36 73 0 29 7 56
16 66 9 10 18 34 21 53 10 64 37 144 70 209 31 62 42 73 80 85 12 4 17 16 17
39 0 42 15 57 51 50 36 -7 37 7 7 64 -21 38 -21 45 -9 75 7 18 17 56 21 83 5
28 11 68 15 91 4 24 3 49 -3 61 -6 10 -7 25 -2 32 8 14 14 12 58 -13 29 -17
59 -10 73 16 8 14 2 43 -25 124 -20 57 -36 117 -36 132 0 15 14 47 30 71 l30
44 2 236 c2 130 3 268 3 306 0 39 4 76 8 83 14 21 65 15 78 -10 7 -13 20 -29
31 -36 10 -7 18 -19 18 -27 0 -8 9 -19 20 -25 28 -15 26 0 -11 65 -19 35 -38
55 -49 55 -12 0 -21 12 -29 43 -6 24 -20 56 -32 71 -12 15 -25 42 -30 59 -4
18 -17 57 -28 87 -13 37 -16 60 -10 72 17 31 9 101 -25 243 -61 252 -70 303
-59 327 7 16 6 33 -3 58 -7 19 -13 47 -13 61 -1 15 -10 38 -21 52 -11 14 -20
31 -20 39 0 8 -5 19 -11 25 -6 6 -12 35 -13 65 -1 47 1 53 21 56 22 3 25 -2
38 -68 15 -73 55 -85 55 -16 0 33 -7 52 -25 74 -14 17 -25 43 -25 58 -1 31
-14 53 -45 70 -12 7 -23 27 -27 50 -9 53 -66 224 -83 250 -17 26 -35 91 -45
167 -5 32 -18 75 -29 96 -24 47 -39 98 -51 171 -25 146 -42 251 -53 310 -11
65 -20 294 -16 400 3 69 2 207 -3 330 -3 87 -1 98 21 128 16 24 21 39 16 55
-5 12 -12 184 -16 382 -4 198 -11 403 -14 455 -6 85 -5 93 8 80 9 -8 20 -37
25 -65 6 -27 15 -77 22 -110 6 -33 16 -74 21 -92 6 -18 11 -81 13 -141 2 -64
9 -119 16 -133 8 -13 16 -37 19 -52 3 -15 11 -27 16 -25 19 6 2 475 -20 553
-24 84 -57 275 -85 480 -4 33 -19 103 -33 155 -28 104 -77 359 -100 515 -11
76 -12 113 -5 155 6 30 10 69 10 85 -1 17 -3 66 -4 111 -2 53 -9 88 -20 105
-11 18 -14 38 -11 71 3 28 1 48 -6 52 -6 4 -11 24 -11 44 0 36 -27 128 -61
207 -9 23 -22 59 -28 80 -6 22 -24 65 -41 95 -16 30 -32 62 -35 70 -4 8 -16
38 -27 65 -12 28 -23 71 -26 98 -3 37 -10 51 -31 66 -21 15 -34 41 -56 112
-19 61 -38 102 -57 122 -15 17 -28 39 -28 51 0 12 -11 39 -25 61 -13 22 -25
48 -25 57 0 9 -11 33 -24 52 -13 19 -26 52 -30 74 -4 26 -14 45 -30 55 -14 10
-28 33 -34 60 -7 24 -19 50 -28 58 -21 17 -64 107 -64 133 0 27 -38 85 -86
132 -27 26 -47 57 -54 83 -7 26 -22 49 -41 63 -17 13 -56 66 -86 118 -31 52
-71 111 -90 130 -18 20 -33 46 -33 58 0 36 -39 125 -68 158 -16 16 -44 42 -64
58 -21 15 -47 51 -62 82 -15 30 -46 76 -70 102 -25 26 -48 60 -51 75 -4 16
-33 50 -67 80 -56 49 -59 54 -56 92 3 37 1 40 -23 43 -39 4 -75 49 -113 136
-19 43 -46 92 -60 109 -15 18 -35 46 -46 62 -11 17 -64 77 -118 135 -54 58
-127 135 -161 171 -34 36 -79 74 -100 84 -27 12 -41 25 -45 44 -3 15 -22 38
-47 55 -23 16 -55 49 -72 73 -18 25 -62 64 -106 92 -42 28 -90 61 -107 75 -19
16 -44 26 -63 26 -25 0 -32 5 -37 26 -5 19 -21 32 -59 49 -31 13 -56 31 -59
43 -4 11 -23 31 -44 45 -20 13 -53 40 -72 59 -39 40 -96 62 -132 53 -18 -5
-33 1 -55 19 -16 13 -41 28 -55 31 -14 4 -35 20 -47 36 -20 26 -26 29 -75 26
-43 -1 -59 2 -78 19 -13 11 -36 26 -53 33 -16 7 -46 23 -65 37 -20 13 -60 28
-89 34 -31 6 -66 21 -84 36 -27 23 -38 26 -77 21 -38 -5 -50 -2 -64 14 -24 28
-90 23 -94 -7 -3 -22 19 -34 66 -34 21 0 23 -3 17 -30 -6 -25 -3 -31 19 -41
31 -15 33 -25 6 -34 -26 -8 -40 1 -40 26 0 11 -8 22 -17 25 -52 16 -85 39 -90
65 -7 35 -22 48 -107 94 -37 20 -89 52 -115 70 -69 49 -100 62 -169 69 -34 4
-81 16 -105 26 -23 11 -52 20 -63 20 -12 0 -59 11 -105 25 -46 14 -119 30
-161 35 -42 6 -103 17 -135 25 -103 27 -187 18 -303 -33 -67 -29 -200 -35
-270 -11 -69 23 -167 39 -202 32 -28 -5 -136 26 -200 58 -49 25 -275 27 -398
4 -47 -9 -125 -23 -174 -31 -50 -8 -115 -24 -145 -34 -30 -11 -82 -25 -115
-30 -34 -6 -74 -17 -91 -24 -88 -40 -112 -49 -135 -52 -14 -1 -58 -8 -98 -14
-63 -10 -77 -9 -98 5 -13 8 -24 23 -24 31 0 9 -7 31 -16 50 -16 34 -16 36 15
95 30 58 37 92 25 137 -6 20 -12 22 -75 22 l-69 0 0 -35 c0 -20 -7 -50 -17
-68 -25 -50 -122 -167 -138 -167 -8 0 -33 -20 -56 -45 -46 -49 -83 -59 -92
-25 -6 22 7 119 29 221 8 37 14 79 14 93 l0 26 -2230 0 -2230 0 0 -2830z
m4356 2685 c-8 -19 -20 -35 -25 -35 -16 0 -13 53 6 96 l16 39 9 -32 c6 -23 4
-43 -6 -68z m-384 -10 c-5 -40 -22 -181 -27 -235 -7 -71 -36 -161 -54 -168
-23 -9 -31 20 -25 88 7 87 32 212 44 224 6 6 10 25 10 44 0 18 5 42 11 53 13
26 45 20 41 -6z m4468 -595 c7 -13 21 -20 39 -20 15 0 45 -11 65 -25 20 -14
42 -25 47 -25 6 0 29 -11 52 -24 23 -13 56 -27 72 -30 19 -5 40 -21 58 -46
l27 -38 -26 -21 c-34 -27 -40 -26 -68 4 -13 14 -32 25 -43 25 -13 0 -25 10
-32 28 -12 28 -52 57 -110 79 -110 42 -174 86 -154 107 15 14 63 5 73 -14z
m-7616 -31 c43 -34 27 -90 -28 -100 -16 -3 -20 -13 -20 -49 -1 -42 -3 -44 -35
-51 -18 -4 -41 -14 -50 -23 -15 -15 -15 -19 2 -47 18 -32 23 -74 9 -82 -4 -3
-25 1 -47 9 -52 18 -80 18 -95 -1 -10 -12 -8 -17 13 -26 31 -14 51 -50 42 -77
-6 -21 -55 -41 -100 -42 -11 -1 -29 -15 -40 -32 -27 -42 -73 -55 -100 -27 -17
17 -20 33 -20 112 0 81 -3 96 -24 125 -31 44 -19 73 38 90 33 10 40 17 38 34
-1 16 8 28 37 44 21 12 53 35 70 50 41 38 55 43 91 33 45 -13 125 13 153 51
27 36 31 36 66 9z m7660 -115 c4 -9 4 -19 1 -22 -8 -8 -55 16 -55 28 0 17 47
11 54 -6z m-220 -130 c9 -23 -2 -34 -33 -34 -29 0 -51 16 -51 37 0 20 76 17
84 -3z m705 -39 c25 -25 -16 -31 -42 -8 -12 11 -29 23 -37 27 -8 3 3 3 25 0
22 -3 46 -12 54 -19z m-646 -24 c5 -22 0 -31 -20 -31 -7 0 -13 11 -13 25 0 30
25 34 33 6z m861 -102 c53 -35 51 -62 -2 -35 -17 9 -40 16 -52 16 -19 0 -28
28 -13 43 10 11 17 9 67 -24z m-94 -75 c0 -16 -16 -19 -25 -4 -8 13 4 32 16
25 5 -4 9 -13 9 -21z m-2510 -154 c0 -10 -4 -21 -9 -24 -4 -3 -11 -19 -14 -36
-4 -18 -13 -30 -22 -30 -21 0 -19 33 5 81 21 40 40 44 40 9z m-110 -137 c0 -5
-4 -15 -10 -23 -11 -18 -25 -7 -17 15 6 15 27 21 27 8z m-122 -101 c2 -23 -2
-33 -17 -42 -24 -12 -26 -5 -15 49 8 39 28 35 32 -7z m-6034 -1224 c-3 -29 -7
-59 -10 -65 -5 -17 -21 -16 -27 1 -7 17 23 116 34 116 5 0 6 -24 3 -52z m2396
-135 c0 -8 -9 -26 -20 -40 -18 -23 -20 -23 -22 -7 -3 35 2 58 14 65 16 10 28
2 28 -18z m-168 -45 c-6 -44 -52 -81 -52 -43 0 17 39 75 50 75 4 0 5 -15 2
-32z m1298 -2 c0 -7 19 -17 42 -22 51 -11 58 -27 18 -44 -33 -14 -60 -2 -60
28 0 8 -7 20 -17 27 -9 7 -13 17 -9 24 9 14 26 5 26 -13z m-177 -74 c3 -4 1
-32 -5 -62 -8 -47 -17 -62 -60 -105 -28 -27 -58 -68 -68 -90 -34 -80 -80 -102
-80 -37 0 25 13 57 40 102 22 36 48 78 57 94 44 73 102 122 116 98z m143 -18
c4 -17 -1 -45 -14 -78 -28 -71 -33 -96 -17 -96 7 0 23 21 36 46 27 52 48 70
73 61 23 -9 20 -49 -9 -88 -13 -19 -30 -47 -38 -64 -8 -16 -26 -41 -41 -54
-14 -14 -31 -41 -36 -60 -5 -20 -20 -48 -32 -63 -53 -63 -101 -152 -106 -195
-4 -38 -10 -48 -43 -69 -48 -30 -69 -31 -62 -4 8 31 -21 35 -51 7 -17 -16 -26
-35 -26 -53 0 -35 6 -44 44 -68 22 -14 26 -20 15 -27 -50 -31 -178 27 -163 74
12 41 34 76 56 91 13 9 30 44 45 88 13 40 33 81 44 91 28 23 66 22 79 -3 12
-23 62 -28 77 -7 6 6 20 40 31 75 12 35 35 80 51 101 30 37 43 101 22 101 -36
0 -64 -24 -85 -72 -23 -51 -102 -158 -117 -158 -8 0 -17 88 -9 98 3 4 14 12
25 18 11 6 27 31 36 55 9 24 26 49 38 57 13 9 21 25 21 42 0 16 11 41 24 57
13 15 31 42 40 60 17 33 51 63 73 63 7 0 16 -12 19 -26z m-1176 -20 c0 -49
-16 -74 -47 -74 -24 0 -25 2 -20 37 6 33 37 72 60 73 4 0 7 -16 7 -36z m300
-189 c0 -16 -27 -32 -37 -22 -3 4 -3 13 0 22 8 20 37 20 37 0z m-395 -45 c-5
-8 -11 -8 -17 -2 -6 6 -7 16 -3 22 5 8 11 8 17 2 6 -6 7 -16 3 -22z m-55 -50
c0 -33 -31 -100 -51 -111 -11 -5 -19 -16 -19 -24 0 -8 -9 -19 -20 -25 -27 -14
-28 13 -2 32 10 7 21 30 25 50 5 36 43 98 59 98 4 0 8 -9 8 -20z m374 -25 c9
-24 -15 -78 -47 -109 l-31 -28 35 -19 c18 -10 46 -18 61 -19 15 0 30 -5 33
-10 11 -18 -24 -60 -56 -67 -34 -7 -47 -28 -32 -52 7 -11 7 -21 -1 -33 -8 -13
-6 -21 7 -36 24 -26 21 -57 -7 -75 -25 -17 -56 -96 -56 -146 0 -38 -31 -61
-84 -61 -31 0 -45 7 -72 35 -19 18 -34 41 -34 49 0 8 -4 16 -9 18 -6 2 -11 30
-12 64 -2 69 18 121 83 214 29 40 37 61 33 78 -6 25 25 86 49 95 8 3 33 31 56
61 40 56 72 71 84 41z m493 -111 c3 -9 -1 -29 -11 -44 -9 -16 -16 -41 -16 -58
0 -31 -47 -99 -89 -129 l-24 -16 7 73 c8 73 22 120 38 120 5 0 18 16 29 35 22
37 55 47 66 19z m-957 -169 c0 -24 -16 -35 -37 -28 -18 6 -16 28 3 47 20 20
34 12 34 -19z m1380 25 c0 -12 -28 -25 -36 -17 -9 9 6 27 22 27 8 0 14 -5 14
-10z m-774 -56 c-9 -8 -16 -24 -16 -34 0 -10 -5 -22 -11 -26 -17 -10 -1 64 19
92 16 21 17 21 20 3 2 -10 -4 -26 -12 -35z m1754 -9 c0 -26 -6 -47 -15 -55 -8
-7 -15 -21 -15 -32 0 -29 -31 -121 -47 -140 -8 -9 -12 -22 -8 -28 4 -6 0 -19
-8 -28 -9 -9 -19 -29 -22 -45 -7 -26 -57 -77 -76 -77 -6 0 -30 -20 -54 -44
-31 -32 -45 -55 -50 -86 -9 -54 -30 -47 -31 12 0 24 -4 50 -8 56 -10 17 -46
15 -52 -3 -7 -16 -44 -21 -44 -5 0 5 13 24 29 42 17 19 35 58 44 93 24 93 34
113 66 129 29 15 33 22 45 78 5 23 15 30 64 43 78 22 83 26 99 71 27 81 83 94
83 19z m-615 22 c13 -21 13 -29 1 -64 -23 -67 -55 -122 -76 -133 -24 -13 -25
-25 -4 -86 14 -42 14 -49 0 -79 -9 -18 -19 -48 -22 -67 -6 -29 -5 -31 7 -17 8
9 25 19 39 22 20 5 32 22 57 79 17 40 34 84 36 98 14 67 56 156 81 170 14 8
29 23 32 33 7 21 28 17 32 -6 2 -8 -6 -36 -17 -60 -11 -24 -23 -63 -27 -86 -4
-22 -17 -52 -29 -65 -13 -14 -28 -49 -34 -77 -7 -29 -20 -67 -31 -84 -11 -17
-22 -57 -26 -88 -5 -42 -11 -57 -23 -58 -35 -4 -87 4 -98 13 -9 7 -15 6 -19
-5 -10 -28 0 -51 31 -67 17 -8 32 -16 34 -18 3 -1 -7 -15 -22 -29 l-26 -27
-26 28 c-16 17 -25 39 -25 59 0 58 -19 14 -26 -61 -5 -51 -11 -72 -20 -72 -10
0 -14 14 -14 46 0 39 -6 54 -36 91 -30 37 -35 48 -27 66 6 12 18 39 26 60 9
20 35 57 57 81 48 52 58 81 67 196 5 71 12 96 41 150 47 87 61 96 87 57z
m-225 -22 c0 -33 -1 -34 -26 -24 -15 5 -31 12 -36 15 -14 9 22 44 44 44 14 0
18 -8 18 -35z m1748 -62 c2 -11 -4 -25 -12 -32 -11 -9 -13 -28 -9 -85 4 -49 2
-75 -6 -80 -6 -4 -11 -31 -11 -59 -1 -29 -8 -70 -16 -92 -9 -22 -19 -61 -24
-87 -9 -47 -16 -63 -73 -156 -37 -59 -51 -72 -85 -72 -17 0 -27 9 -38 35 -9
23 -19 33 -28 29 -11 -4 -18 4 -24 27 -13 51 0 110 31 141 14 14 29 39 33 55
7 32 61 129 104 188 16 22 29 48 30 59 0 10 15 32 34 50 18 17 37 42 41 56 15
51 47 65 53 23z m-1815 -25 c28 -15 21 -60 -15 -95 -44 -41 -69 -52 -93 -42
-37 14 -54 9 -70 -21 -12 -23 -13 -35 -5 -50 15 -28 34 -25 73 10 19 17 40 30
46 30 22 0 90 -54 91 -71 0 -4 -25 -34 -55 -68 -30 -34 -55 -66 -55 -71 0 -5
-14 -29 -30 -54 -25 -36 -36 -44 -57 -43 -23 2 -28 -3 -33 -28 -8 -44 -36 -44
-76 -1 -47 51 -51 50 -68 -26 -8 -34 -39 -53 -65 -39 -13 8 -20 27 -25 75 -6
59 -4 69 22 113 38 65 72 150 72 180 0 33 27 81 61 110 16 14 29 35 29 48 0
22 23 37 75 48 36 8 160 5 178 -5z m-1724 -34 c13 -47 7 -59 -41 -79 -38 -15
-39 -17 -26 -38 8 -12 18 -34 22 -49 6 -28 28 -36 53 -20 15 10 33 57 33 88 0
29 9 30 43 4 29 -23 29 -23 -15 -117 -10 -23 -21 -66 -25 -95 l-6 -53 29 37
c16 21 36 48 45 60 l17 23 26 -24 c21 -20 26 -34 26 -73 0 -39 -4 -50 -25 -64
-13 -8 -28 -13 -34 -10 -17 11 -19 -19 -5 -92 18 -97 8 -125 -44 -120 -33 3
-37 1 -40 -23 -2 -14 4 -31 12 -39 22 -18 20 -50 -6 -77 -21 -23 -33 -72 -44
-183 -6 -63 -23 -128 -39 -150 -6 -8 -17 -28 -23 -44 -10 -23 -15 -26 -27 -16
-16 14 -20 56 -6 64 4 3 6 36 3 74 -4 56 -1 75 17 110 12 24 20 46 17 51 -5 8
17 81 37 120 10 21 8 26 -21 50 -20 18 -32 36 -32 53 0 19 -5 24 -22 24 -19
-1 -25 7 -35 48 -7 26 -14 51 -17 54 -12 11 -36 -22 -41 -57 -4 -20 -10 -45
-15 -56 -17 -40 -40 -119 -40 -137 0 -10 -13 -48 -30 -83 -16 -35 -30 -76 -30
-90 0 -33 -44 -121 -65 -128 -8 -4 -15 -17 -15 -29 0 -32 -27 -68 -50 -68 -16
0 -18 5 -14 29 5 23 2 30 -15 36 -39 12 -19 65 25 65 38 0 38 30 0 65 -41 37
-62 83 -46 99 5 5 10 20 10 32 0 13 5 26 11 30 19 12 29 -19 22 -72 -5 -47 -3
-53 16 -59 11 -3 25 -4 31 0 14 9 30 74 30 129 0 32 7 60 21 83 13 21 19 44
16 60 -5 27 4 63 29 120 8 17 14 36 14 43 0 6 11 28 25 48 14 20 25 49 25 64
0 15 12 49 26 75 16 31 24 57 20 75 -3 17 2 35 15 52 28 35 50 92 43 110 -8
21 77 106 105 106 14 0 23 -10 30 -36z m176 5 c10 -15 -1 -23 -20 -15 -9 3
-13 10 -10 16 8 13 22 13 30 -1z m2785 -108 c0 -10 -7 -21 -15 -25 -8 -3 -15
-12 -15 -21 0 -8 -5 -15 -11 -15 -7 0 -8 7 -4 18 4 9 10 27 12 40 6 27 33 30
33 3z m-2176 -51 c-10 -22 -24 -40 -31 -40 -18 0 -17 7 14 59 31 53 43 40 17
-19z m-584 19 c0 -12 -7 -19 -20 -19 -22 0 -29 35 -7 43 18 6 27 -2 27 -24z
m134 -5 c20 -8 11 -24 -15 -24 -10 0 -19 7 -19 15 0 16 9 19 34 9z m2326 -71
c-1 -26 -24 -53 -46 -53 -49 1 -57 41 -12 60 37 14 58 12 58 -7z m-2350 1 c0
-13 -21 -44 -30 -44 -6 0 -10 11 -10 25 0 18 5 25 20 25 11 0 20 -3 20 -6z
m864 -9 c3 -8 12 -15 21 -15 18 0 20 -37 4 -95 l-11 -40 -23 29 c-29 36 -46
97 -33 120 11 20 34 21 42 1z m1751 -36 c-6 -19 -9 -20 -16 -6 -11 20 0 52 13
39 6 -6 7 -20 3 -33z m-2190 -26 c-4 -11 -9 -13 -16 -6 -7 7 -6 19 3 39 12 27
13 27 16 5 2 -12 1 -30 -3 -38z m2463 3 c4 -20 -15 -46 -34 -46 -8 0 -14 10
-14 23 0 42 41 62 48 23z m-318 -84 c0 -15 -9 -44 -20 -65 -11 -20 -20 -49
-20 -63 0 -33 -49 -174 -67 -194 -42 -44 -57 103 -19 180 21 44 65 119 90 153
21 31 36 27 36 -11z m-2163 -45 c15 -218 15 -222 -5 -299 -24 -90 -39 -121
-55 -115 -16 5 -29 187 -15 204 6 7 12 46 15 85 3 40 11 83 19 95 8 12 14 31
14 41 0 21 10 35 19 26 3 -3 7 -20 8 -37z m430 32 c8 -8 7 -24 -2 -59 -16 -59
-22 -70 -41 -70 -11 0 -14 16 -14 70 0 66 1 70 23 70 13 0 28 -5 34 -11z
m3086 -104 c-6 -90 -12 -105 -45 -105 -21 0 -24 39 -6 73 6 12 13 44 15 71 2
28 9 56 15 64 21 24 28 -9 21 -103z m-2043 86 c0 -23 -25 -46 -35 -32 -7 13
12 51 25 51 6 0 10 -8 10 -19z m1387 -44 c5 -40 9 -46 34 -51 29 -6 29 -6 15
-43 -7 -21 -19 -58 -26 -83 -22 -82 -79 -190 -100 -190 -16 0 -12 42 9 85 17
35 27 67 48 154 7 30 -17 25 -33 -7 -6 -12 -18 -30 -27 -40 -10 -10 -17 -29
-17 -41 0 -28 -74 -106 -90 -96 -9 5 -11 25 -7 65 8 73 15 90 38 90 15 0 19 7
19 35 0 34 4 40 63 90 9 8 17 26 17 39 0 30 28 62 42 48 6 -6 13 -30 15 -55z
m-457 -12 c5 -46 -1 -62 -26 -74 -31 -14 -32 -14 -40 27 -5 25 -1 36 21 58 27
27 42 24 45 -11z m690 -103 c-12 -26 -36 -62 -53 -79 l-31 -33 22 -30 c28 -37
28 -56 -4 -150 -28 -86 -68 -138 -84 -109 -6 11 -18 15 -35 11 -22 -4 -25 -1
-27 24 -2 38 -2 37 21 122 11 41 27 82 35 91 9 10 16 27 16 39 0 12 11 44 24
71 13 27 27 62 30 77 5 20 10 24 19 15 6 -6 22 -11 35 -11 17 0 26 8 35 33
l12 32 3 -28 c2 -16 -6 -50 -18 -75z m-3302 -18 c-2 -15 -8 -29 -14 -31 -17
-6 -25 24 -13 54 12 33 32 18 27 -23z m2543 -21 c-10 -17 -10 -16 -11 3 0 23
13 41 18 25 2 -6 -1 -18 -7 -28z m-1775 -10 c-11 -11 -17 4 -9 23 7 18 8 18
11 1 2 -10 1 -21 -2 -24z m-1088 -3 c-2 -6 -8 -6 -18 0 -13 9 -13 11 0 20 15
10 25 0 18 -20z m5442 -99 c0 -59 -14 -86 -31 -60 -20 31 -2 119 23 119 5 0 8
-27 8 -59z m-513 -21 c-6 -57 -12 -70 -34 -70 -13 0 -15 9 -9 57 10 88 51 100
43 13z m-966 -113 c-7 -7 -15 -6 -26 3 -22 18 -21 113 3 136 16 17 17 14 25
-56 5 -47 4 -77 -2 -83z m-4295 98 c8 -20 -13 -45 -37 -45 -24 0 -25 35 -1 49
24 14 32 13 38 -4z m4092 -67 c-28 -52 -42 -54 -46 -7 -3 31 2 41 30 64 32 28
33 28 36 6 2 -11 -7 -40 -20 -63z m895 -53 c18 -13 18 -14 -3 -25 -25 -13 -43
1 -33 27 6 16 13 16 36 -2z m4847 -250 c0 -8 -4 -15 -10 -15 -5 0 -10 7 -10
15 0 8 5 15 10 15 6 0 10 -7 10 -15z m-4404 -1120 l38 -36 135 6 c75 3 147 9
161 13 14 4 63 7 110 8 47 1 99 4 115 7 17 4 44 9 60 12 27 6 33 2 55 -32 24
-36 29 -38 87 -44 63 -6 137 -43 149 -74 4 -8 21 -24 40 -36 32 -19 37 -20 67
-6 18 8 66 23 107 32 70 16 81 16 140 2 51 -12 78 -13 125 -5 33 6 102 11 153
12 78 1 96 4 107 19 16 22 43 12 69 -28 12 -18 25 -25 49 -25 47 0 62 14 62
57 0 36 2 38 34 41 39 4 51 -9 51 -55 0 -23 8 -38 31 -57 26 -22 40 -26 96
-26 48 0 72 5 85 17 17 15 18 15 18 -9 0 -19 -7 -27 -23 -32 -13 -3 -36 -17
-51 -31 -15 -14 -35 -25 -44 -25 -10 0 -25 -8 -34 -17 -68 -74 -151 -118 -208
-110 -214 30 -235 31 -287 14 -29 -9 -75 -17 -103 -17 -41 0 -58 -5 -82 -26
-41 -34 -69 -28 -91 19 -24 51 -46 48 -111 -18 -29 -30 -63 -55 -74 -55 -10 0
-42 -10 -71 -21 -68 -29 -102 -88 -116 -204 -1 -5 -5 -22 -9 -37 -6 -19 -3
-34 8 -50 33 -46 15 -135 -45 -219 -10 -14 -23 -47 -29 -73 -6 -26 -19 -65
-30 -86 -10 -20 -17 -40 -14 -42 2 -3 -2 -21 -10 -40 -9 -19 -18 -60 -21 -89
-4 -30 -12 -79 -20 -110 -23 -103 -3 -283 47 -404 11 -27 29 -86 40 -130 10
-44 30 -101 43 -126 14 -26 25 -57 25 -69 0 -12 6 -42 14 -68 8 -26 19 -72 26
-102 7 -30 16 -60 21 -66 20 -25 38 -124 28 -156 -6 -18 -14 -57 -19 -86 -6
-35 -19 -65 -40 -90 -16 -20 -30 -44 -30 -54 0 -9 -13 -30 -30 -46 -16 -17
-30 -34 -30 -39 0 -5 -9 -16 -20 -26 -11 -9 -20 -23 -20 -31 0 -7 -16 -26 -35
-40 -19 -15 -44 -45 -55 -67 -13 -25 -27 -39 -39 -39 -28 0 -113 -38 -138 -62
-25 -23 -30 -57 -12 -75 16 -16 -15 -30 -82 -38 -121 -14 -130 -31 -45 -89 53
-37 56 -37 123 -31 65 7 70 6 111 -24 23 -17 42 -36 42 -43 0 -6 26 -36 58
-67 32 -31 63 -64 68 -74 6 -10 40 -25 84 -38 41 -11 85 -27 98 -35 17 -12 27
-12 45 -3 36 19 57 41 57 60 0 26 39 49 84 49 22 0 47 6 55 14 9 7 29 18 45
23 27 8 30 14 31 52 1 45 28 79 49 62 25 -19 46 -19 70 0 14 11 26 24 26 29 0
4 -29 26 -65 49 -36 22 -65 45 -65 50 0 18 56 51 68 39 5 -5 15 -7 21 -4 16
10 14 56 -3 62 -14 5 -22 35 -32 112 -2 20 -8 48 -13 62 -5 14 -12 57 -14 95
-5 58 -2 77 15 112 20 39 20 46 8 84 -8 23 -22 51 -32 64 -17 21 -16 24 2 59
17 34 17 41 4 78 -8 23 -18 46 -23 52 -4 6 -18 48 -30 94 -18 71 -19 88 -9
127 9 35 9 52 0 78 -7 18 -12 43 -12 55 0 11 -4 24 -10 27 -5 3 -10 21 -10 40
0 26 8 39 35 62 37 30 39 37 35 166 -1 44 -3 48 -37 65 -40 18 -59 61 -43 92
8 15 22 17 82 15 41 -1 83 -7 95 -13 30 -16 65 -15 89 3 10 8 27 15 36 15 23
0 34 -45 20 -82 -9 -24 -7 -31 8 -46 40 -37 130 -83 176 -91 27 -5 69 -17 94
-28 64 -28 98 -35 119 -23 13 7 33 5 68 -5 65 -20 181 -19 221 1 42 20 67 12
120 -42 24 -24 47 -44 52 -44 4 0 13 -13 20 -29 7 -19 21 -31 39 -34 16 -3 41
-17 57 -30 43 -37 163 -117 174 -117 15 0 60 -46 60 -62 0 -8 -7 -23 -15 -34
-19 -26 -19 -83 1 -105 21 -23 13 -54 -26 -98 -16 -18 -30 -36 -30 -38 0 -12
35 -69 48 -79 21 -15 11 -45 -23 -69 -78 -52 -76 -50 -86 -120 -6 -41 -6 -72
0 -79 8 -10 15 -54 26 -166 2 -19 0 -99 -4 -176 -6 -127 -9 -145 -31 -177 -14
-20 -32 -38 -42 -40 -10 -3 -23 -17 -30 -32 -10 -23 -10 -28 4 -36 19 -10 23
-103 7 -156 -6 -18 -11 -47 -11 -65 0 -18 -7 -41 -16 -50 -14 -16 -13 -20 3
-38 10 -11 24 -20 32 -20 9 0 13 -8 11 -22 -2 -19 -9 -23 -35 -22 -18 1 -33 0
-33 -1 0 -2 5 -16 10 -31 21 -54 -37 -122 -97 -115 -11 1 -24 -3 -28 -8 -3 -6
-15 -11 -26 -11 -11 0 -22 -8 -26 -17 -7 -21 -103 -123 -116 -123 -5 0 -34
-19 -65 -43 -31 -23 -70 -51 -85 -60 -15 -10 -25 -22 -21 -28 8 -14 -23 -58
-52 -71 -17 -8 -24 -19 -24 -39 0 -23 -8 -32 -40 -49 -23 -12 -46 -32 -52 -45
-7 -15 -26 -29 -51 -38 -48 -16 -60 -44 -55 -135 3 -57 3 -57 35 -57 27 0 34
-5 43 -30 10 -27 8 -33 -15 -52 -18 -16 -39 -23 -66 -23 -44 0 -48 -10 -20
-49 26 -37 16 -94 -18 -99 -13 -2 -27 0 -32 5 -8 8 2 87 17 135 3 9 -6 28 -20
43 -19 20 -24 34 -19 55 3 18 -1 37 -11 51 -18 26 -21 65 -6 74 6 3 10 14 10
24 0 18 -26 31 -64 31 -25 0 -126 48 -126 59 0 5 -18 12 -41 16 -41 7 -60 28
-42 46 7 7 2 19 -14 35 -19 19 -23 31 -18 47 27 77 -8 133 -87 143 -33 5 -52
13 -59 25 -5 11 -18 19 -27 19 -10 0 -37 14 -60 31 l-42 31 -67 -13 c-38 -7
-88 -12 -113 -11 -145 4 -224 0 -257 -12 -21 -7 -58 -20 -82 -27 -26 -8 -66
-33 -96 -61 -32 -29 -66 -51 -86 -54 -38 -8 -61 -22 -54 -34 6 -10 -24 -22
-36 -14 -5 3 -9 14 -9 25 0 34 -43 88 -83 104 -35 14 -41 14 -95 -9 -31 -13
-73 -26 -93 -30 -20 -3 -65 -24 -102 -46 -36 -22 -70 -40 -75 -40 -6 0 -63
-20 -128 -46 -153 -59 -239 -77 -329 -69 -68 7 -71 6 -120 -28 -49 -33 -62
-38 -148 -52 -31 -5 -58 -25 -134 -96 -76 -71 -102 -90 -133 -95 -29 -5 -46
-16 -71 -47 -29 -35 -33 -49 -36 -110 l-4 -69 40 -37 c72 -67 81 -68 139 -27
27 20 66 55 85 79 107 129 126 144 228 176 53 17 111 31 128 31 18 0 46 10 63
21 16 12 48 27 71 34 23 7 58 19 77 28 83 35 182 49 365 50 99 0 196 -3 216
-7 34 -7 39 -5 60 23 30 41 51 39 99 -9 38 -38 43 -40 104 -40 70 0 109 -20
120 -64 3 -13 17 -31 31 -40 57 -38 13 -110 -88 -145 -35 -11 -76 -21 -91 -21
-14 0 -43 -7 -63 -15 -46 -19 -50 -19 -58 5 -8 24 -30 26 -51 5 -11 -11 -38
-15 -94 -15 -120 0 -123 -3 -180 -138 -12 -28 -29 -52 -36 -52 -19 0 -73 -61
-74 -82 0 -16 32 -42 42 -33 2 2 20 6 41 8 47 5 63 19 72 63 3 20 13 37 23 40
9 3 27 11 39 16 26 13 151 4 201 -13 31 -10 37 -9 77 20 48 34 104 41 125 16
10 -13 10 -19 -4 -34 -26 -28 -17 -79 16 -104 21 -16 44 -21 95 -22 49 0 81
-7 115 -23 28 -14 56 -21 67 -17 14 4 34 -5 67 -30 43 -33 52 -36 89 -31 35 6
44 3 65 -19 13 -14 27 -25 32 -25 37 0 75 -103 59 -158 -14 -46 -3 -100 31
-149 l29 -43 -38 -37 c-21 -21 -47 -59 -57 -86 -12 -32 -27 -52 -46 -62 -17
-9 -37 -33 -48 -58 -23 -51 -138 -177 -161 -177 -9 0 -22 5 -29 12 -14 14 -65
-23 -116 -85 -26 -32 -47 -46 -81 -55 -28 -7 -59 -26 -80 -47 -43 -42 -86 -51
-145 -31 -65 23 -74 20 -99 -24 -15 -27 -29 -40 -43 -40 -12 0 -42 -13 -68
-30 -25 -16 -64 -36 -85 -44 -22 -7 -67 -30 -99 -50 -33 -20 -75 -38 -95 -41
-20 -4 -74 -19 -121 -35 -78 -27 -97 -30 -235 -31 -82 -1 -162 -6 -177 -12
-23 -8 -33 -5 -60 15 -18 14 -78 44 -133 67 -55 24 -110 49 -123 58 -23 14
-107 43 -128 43 -7 0 -14 -9 -17 -21 -9 -32 -33 -17 -29 18 4 44 -58 98 -124
108 -32 4 -60 17 -82 36 -18 16 -37 29 -41 29 -5 0 -28 16 -51 35 -23 19 -52
35 -65 35 -12 0 -28 7 -35 15 -16 19 -117 66 -153 71 -15 2 -44 16 -63 30 -32
25 -36 26 -51 11 -14 -14 -21 -14 -52 -2 -20 7 -48 16 -63 19 -37 8 -85 51
-108 96 -20 40 -36 50 -78 50 -15 0 -51 11 -80 25 -30 14 -60 25 -66 25 -7 0
-21 9 -30 19 -10 11 -28 22 -41 25 -14 4 -29 15 -35 26 -6 11 -33 31 -61 45
-27 14 -52 32 -55 40 -10 25 -87 75 -139 91 -37 10 -56 22 -68 44 -12 19 -26
30 -40 30 -13 0 -44 20 -72 46 -28 26 -70 60 -94 75 -25 16 -50 42 -57 58 -10
23 -21 31 -49 37 -27 5 -42 15 -56 38 -10 17 -27 42 -39 54 -11 13 -20 29 -20
36 0 29 -38 49 -85 44 l-45 -6 0 44 c0 37 -5 47 -31 66 -17 13 -49 27 -72 33
-28 7 -43 17 -47 30 -10 38 -63 96 -107 117 -24 11 -43 27 -43 34 0 8 -15 23
-32 34 -18 11 -42 39 -53 61 -11 23 -27 45 -35 49 -8 4 -40 19 -70 34 -48 22
-58 33 -79 78 -22 47 -27 66 -30 104 -1 6 -14 25 -29 42 -31 35 -52 91 -52
141 0 18 -8 46 -17 64 -10 19 -20 66 -23 114 -5 72 -10 87 -33 111 -52 54
-117 284 -96 339 11 30 3 48 -25 61 -24 11 -23 6 -45 177 -4 33 -12 71 -18 85
-5 14 -15 75 -22 135 -18 165 -31 274 -42 338 -6 32 -12 139 -14 237 -2 99 -6
184 -10 190 -8 13 -24 261 -31 460 -3 120 -8 158 -29 221 -22 66 -26 95 -26
210 -1 82 5 167 15 219 9 47 16 99 16 115 0 23 16 46 63 97 91 98 237 216 327
267 19 10 74 61 123 113 114 121 103 110 176 176 l64 57 102 1 c111 2 177 23
242 78 17 15 46 32 65 38 30 11 95 53 276 180 37 26 72 47 79 47 14 1 102 57
159 102 64 50 145 75 238 74 85 0 98 -8 69 -42 -10 -11 -36 -47 -58 -78 -54
-78 -174 -201 -205 -210 -14 -4 -36 -17 -50 -30 -14 -12 -41 -25 -61 -29 -20
-4 -68 -29 -108 -59 -39 -28 -86 -62 -104 -74 -18 -12 -61 -42 -97 -67 -92
-62 -98 -71 -77 -108 9 -16 17 -36 17 -44 0 -7 11 -21 25 -30 43 -28 163 2
239 60 17 13 64 30 106 39 41 9 93 21 115 26 197 48 316 62 480 57 92 -3 164
-1 187 6 42 12 117 3 144 -18 18 -14 18 -15 -14 -41 -39 -31 -100 -57 -267
-114 -137 -46 -140 -48 -253 -141 -47 -37 -90 -68 -97 -68 -21 0 -185 -171
-209 -219 l-23 -45 38 -36 c22 -20 39 -45 39 -54 0 -9 -16 -26 -35 -37 -38
-23 -44 -39 -20 -59 12 -10 28 -10 72 -1 31 6 94 11 139 11 77 0 86 2 116 28
18 16 46 32 62 36 16 4 46 25 66 48 52 56 70 50 97 -36 25 -76 57 -130 116
-193 36 -38 42 -40 69 -31 32 12 123 -9 190 -43 46 -23 178 -26 229 -5 19 8
46 12 61 9 19 -4 43 4 80 25 56 32 83 62 115 127 11 22 32 62 46 89 25 45 27
59 27 165 1 108 2 118 25 144 13 15 29 27 35 27 23 0 103 -77 148 -143 49 -71
121 -134 186 -161 59 -24 66 -22 66 24 0 56 -20 98 -69 145 -22 21 -41 45 -41
51 0 7 -22 39 -50 70 -27 31 -50 63 -50 70 0 26 21 24 48 -4 15 -16 41 -34 59
-41 18 -7 38 -19 44 -27 22 -27 58 -17 76 21 16 34 16 35 -13 76 -23 34 -29
54 -31 103 -1 34 -5 73 -8 88 -6 24 -3 29 20 38 15 6 29 20 32 31 5 18 11 20
40 14 25 -4 40 -1 60 14 14 12 31 21 37 21 6 0 26 12 43 28 17 15 47 41 66 57
41 36 56 90 38 140 -6 17 -11 43 -11 58 0 23 -10 32 -70 62 -57 29 -81 35
-132 35 -35 0 -99 7 -143 15 -211 38 -255 50 -255 69 0 11 49 52 122 101 16
11 59 44 95 73 36 28 70 52 76 52 5 0 27 -16 48 -35 47 -42 77 -44 119 -9 17
15 48 32 68 39 32 11 41 11 74 -6 48 -24 69 -24 103 3 26 21 82 27 107 12 25
-16 137 -3 190 21 29 14 56 25 60 25 4 0 23 -16 44 -35z m-1549 -191 c51 -29
59 -40 42 -61 -24 -29 -349 -6 -349 24 1 20 20 34 71 52 73 25 177 19 236 -15z
m-5433 -710 c11 -28 6 -71 -9 -84 -12 -10 -16 -8 -25 14 -5 14 -7 33 -5 41 3
8 7 22 10 30 6 20 21 19 29 -1z m5204 -226 c40 -40 -28 -115 -79 -88 -27 15
-25 64 3 84 27 19 59 21 76 4z m186 -99 c-8 -14 -44 -10 -44 4 0 7 6 19 12 25
10 10 15 9 25 -4 7 -9 10 -21 7 -25z m3726 -95 c0 -14 -3 -14 -15 -4 -8 7 -15
14 -15 16 0 2 7 4 15 4 8 0 15 -7 15 -16z m-11 -105 c11 -31 8 -49 -9 -49 -15
0 -32 40 -25 60 9 29 21 25 34 -11z m-144 -169 c-33 -36 -2 -61 50 -41 13 6
30 3 47 -7 22 -13 30 -14 40 -4 7 7 30 12 52 12 l40 0 -20 -21 c-12 -11 -39
-25 -60 -30 -21 -6 -56 -14 -77 -20 -21 -5 -46 -14 -56 -21 -14 -8 -36 -9 -86
0 -37 6 -69 13 -72 16 -9 9 63 73 90 80 17 4 29 15 33 31 3 14 13 25 22 25 13
0 12 -3 -3 -20z m-8837 -412 c19 -19 15 -114 -8 -158 -11 -21 -24 -41 -30 -45
-5 -3 -10 -13 -10 -21 0 -13 -34 -54 -45 -54 -13 0 -3 68 20 136 14 41 25 84
25 95 0 23 17 59 28 59 5 0 13 -5 20 -12z m11 -261 c27 -33 24 -74 -8 -131
-36 -63 -43 -69 -65 -60 -22 8 -21 61 2 121 11 26 22 56 25 66 8 20 30 22 46
4z m579 -496 c-3 -42 19 -52 57 -27 22 14 23 19 13 41 -9 21 -9 29 4 41 32 32
74 -15 49 -55 -5 -7 -5 -27 -1 -43 11 -36 -6 -79 -43 -108 -18 -14 -27 -31
-27 -50 0 -44 -16 -78 -42 -86 -13 -4 -29 -15 -36 -25 -20 -29 -34 -23 -27 10
l6 30 -53 3 c-45 3 -53 6 -56 24 -2 11 6 32 17 45 l21 24 30 -35 c32 -38 39
-27 14 21 -9 18 -21 29 -29 25 -19 -7 -50 19 -50 43 0 11 -4 20 -10 20 -5 0
-9 -9 -8 -20 2 -13 -3 -19 -17 -19 -16 0 -20 -7 -20 -36 0 -28 -8 -44 -37 -73
-21 -21 -42 -46 -48 -55 -5 -10 -19 -18 -30 -19 -29 -3 -31 31 -2 61 14 15 30
46 36 69 7 23 18 46 25 50 18 11 47 78 55 128 5 32 11 41 28 43 17 3 26 -3 33
-23 14 -38 36 -26 32 18 -5 51 19 61 75 34 40 -20 43 -24 41 -56z m-438 -68
c0 -5 -12 -19 -25 -32 -14 -13 -25 -29 -25 -36 0 -7 -15 -24 -33 -38 -22 -16
-38 -40 -46 -69 -16 -56 -57 -118 -77 -118 -12 0 -15 -6 -10 -25 7 -26 5 -28
-46 -39 -41 -9 -35 -43 13 -85 l39 -33 6 31 c7 34 19 47 29 32 10 -17 -16
-101 -31 -101 -8 0 -14 3 -14 8 -1 26 -17 32 -49 16 -38 -19 -140 -29 -160
-16 -11 8 -10 14 4 36 21 31 36 33 60 6 34 -38 48 -26 42 34 -6 65 14 111 72
166 21 19 48 54 61 78 13 23 27 42 31 42 4 0 19 20 34 45 32 56 126 128 125
98z m-470 -562 c-15 -29 -30 -35 -30 -13 0 22 8 32 27 32 10 0 11 -5 3 -19z
m205 -41 c19 -37 13 -50 -26 -50 -33 0 -44 17 -35 55 9 35 42 33 61 -5z m2369
-6 c3 -9 6 -28 6 -44 0 -15 6 -43 14 -61 16 -40 19 -124 5 -150 -5 -11 -21
-19 -35 -19 -19 0 -26 -6 -30 -29 -8 -40 -30 -46 -61 -15 -27 27 -27 25 2 124
9 30 20 78 25 105 6 28 15 62 21 78 12 30 43 36 53 11z m-974 -43 c0 -12 -20
-25 -27 -18 -7 7 6 27 18 27 5 0 9 -4 9 -9z m-1503 -52 c-6 -46 -49 -99 -79
-99 -24 0 -24 35 0 80 29 57 32 60 59 60 24 0 25 -2 20 -41z m1457 -35 c12
-32 5 -70 -23 -130 -16 -34 -34 -65 -40 -68 -6 -4 -11 -17 -11 -28 0 -20 1
-20 20 -3 10 9 26 15 34 12 22 -9 6 -54 -33 -96 -17 -18 -31 -39 -31 -45 0
-17 -36 -48 -84 -72 -21 -10 -54 -38 -73 -61 -21 -25 -44 -43 -56 -43 -11 0
-31 -10 -44 -22 l-23 -21 16 54 c9 30 24 65 34 79 10 14 32 52 49 85 17 33 35
67 41 75 5 8 16 31 25 51 9 20 27 42 42 50 14 7 29 23 34 34 5 11 21 35 34 54
14 19 25 46 25 60 0 45 50 72 64 35z m822 -589 c34 -38 47 -45 78 -45 28 0 45
-7 67 -29 16 -16 29 -36 29 -44 0 -8 9 -22 20 -32 25 -22 25 -33 1 -64 -16
-21 -23 -23 -56 -17 -32 6 -58 27 -147 117 -123 125 -137 159 -64 159 23 0 40
-11 72 -45z m302 -317 c7 -7 12 -20 12 -30 0 -16 -3 -17 -20 -8 -11 6 -20 20
-20 30 0 23 10 26 28 8z m6059 -414 c16 -25 16 -29 0 -74 -19 -53 -22 -100 -7
-100 6 0 20 -11 32 -25 26 -30 44 -32 58 -5 15 27 35 15 50 -30 18 -53 7 -86
-31 -99 -47 -16 -77 -13 -99 9 -30 30 -40 24 -40 -24 0 -57 -19 -76 -75 -76
-40 0 -44 -2 -47 -27 -3 -26 -7 -28 -55 -31 -62 -4 -74 2 -105 47 -13 19 -36
42 -53 51 -42 22 -65 73 -65 142 0 31 5 60 10 63 16 10 12 22 -10 28 -11 3
-20 14 -20 24 0 27 10 35 27 22 10 -9 15 -5 24 19 9 25 18 32 58 42 33 8 55 8
75 1 36 -14 39 -14 32 4 -6 17 30 55 54 55 12 0 20 -17 30 -66 8 -36 17 -67
21 -70 9 -5 19 22 25 65 5 43 10 50 48 67 42 18 43 18 63 -12z m1702 -61 c1
-18 -3 -33 -8 -33 -13 0 -22 47 -15 77 7 25 8 25 15 8 4 -11 8 -35 8 -52z
m-2762 -190 c8 -21 -12 -36 -36 -28 -19 6 -29 34 -15 47 9 10 45 -4 51 -19z
m2427 -370 c10 -49 1 -93 -19 -93 -29 0 -47 78 -29 125 12 30 39 12 48 -32z
m196 10 c-1 -24 -2 -26 -11 -10 -5 9 -7 22 -4 27 10 17 15 11 15 -17z m-7367
-29 c11 -11 -3 -24 -18 -18 -8 4 -12 10 -9 15 6 11 18 12 27 3z m7421 -136
c19 -26 21 -95 5 -147 -9 -30 -8 -44 5 -75 9 -21 16 -54 16 -73 0 -30 -4 -36
-38 -51 -30 -13 -44 -28 -63 -67 -29 -61 -53 -66 -57 -11 -5 56 15 99 43 92
17 -4 23 1 33 27 17 48 15 67 -7 67 -24 0 -27 13 -23 107 3 64 6 76 23 80 14
4 19 14 19 39 0 40 21 46 44 12z m-8492 -75 c-1 -223 -11 -255 -70 -223 -40
23 -43 71 -4 99 27 19 30 26 35 100 3 44 8 85 12 91 14 23 27 -9 27 -67z
m-181 -162 c20 -16 21 -21 10 -35 -17 -20 -64 -21 -80 -2 -9 11 -10 20 -1 35
13 26 41 27 71 2z m8204 -221 c15 -29 14 -33 -11 -75 -20 -34 -25 -54 -21 -83
5 -45 -17 -98 -44 -105 -10 -3 -29 3 -42 13 -21 17 -21 20 -8 52 8 18 14 57
13 87 -3 63 12 117 36 131 33 19 61 11 77 -20z m-8290 -135 c0 -28 -29 -25
-33 3 -3 19 0 23 15 20 10 -2 18 -12 18 -23z m4143 -216 c-16 -9 -60 -1 -53
10 2 4 18 6 36 3 23 -3 28 -7 17 -13z m-4750 -386 c-41 -86 -53 -102 -102
-126 -28 -13 -73 -37 -100 -51 -57 -30 -146 -37 -146 -12 0 14 49 56 65 56 4
0 20 9 36 21 25 18 52 26 96 28 6 1 26 13 43 28 47 39 118 76 108 56z m5379
-330 c6 -16 -33 -35 -63 -31 -24 3 -24 4 -8 26 17 25 64 28 71 5z m-1217 -2
c0 -20 -28 -33 -49 -21 -32 16 -25 30 14 30 19 0 35 -4 35 -9z m820 -110 c0
-5 -10 -11 -22 -13 -33 -5 -69 3 -62 13 7 12 84 12 84 0z"/>
<path d="M2660 10490 c0 -37 4 -50 15 -50 20 0 30 46 16 76 -17 39 -31 28 -31
-26z"/>
<path d="M4462 10337 c-20 -21 -32 -43 -32 -60 0 -40 16 -33 50 21 47 75 38
97 -18 39z"/>
<path d="M5455 10209 c-10 -15 3 -25 16 -12 7 7 7 13 1 17 -6 3 -14 1 -17 -5z"/>
<path d="M5408 10183 c-15 -4 -18 -16 -18 -74 0 -67 1 -69 20 -59 12 6 25 22
30 34 9 24 2 107 -9 105 -3 -1 -14 -3 -23 -6z"/>
<path d="M2037 10332 c-9 -10 -20 -33 -23 -50 -5 -25 -3 -32 9 -32 22 0 47 39
47 72 0 32 -10 35 -33 10z"/>
<path d="M1996 10209 c-18 -26 -22 -69 -6 -69 6 0 10 10 10 21 0 12 8 28 18
35 13 9 14 16 6 24 -9 9 -16 6 -28 -11z"/>
<path d="M2106 10191 c-26 -10 -55 -85 -55 -143 -1 -74 27 -62 59 24 12 32 26
60 31 63 5 4 9 19 9 36 0 30 -9 34 -44 20z"/>
<path d="M6980 7866 c0 -35 -5 -58 -15 -66 -30 -25 -12 -57 25 -45 15 5 20 15
20 45 0 21 5 42 10 45 16 10 12 62 -6 69 -30 11 -34 6 -34 -48z"/>
<path d="M5118 6800 c-4 -47 7 -54 16 -9 8 42 8 49 -3 49 -5 0 -11 -18 -13
-40z"/>
<path d="M6063 6638 c-15 -19 -25 -98 -13 -98 5 0 14 9 20 20 6 11 17 20 26
20 20 0 28 24 14 49 -12 24 -33 27 -47 9z"/>
<path d="M5907 6602 c-24 -27 -21 -65 7 -92 33 -30 52 -21 66 32 11 39 10 44
-10 60 -28 23 -43 23 -63 0z"/>
<path d="M5753 6561 c-37 -18 -41 -34 -15 -53 11 -7 25 -24 32 -38 18 -35 18
-35 40 -15 22 20 26 61 8 100 -13 28 -20 29 -65 6z"/>
<path d="M7310 5220 c-14 -6 -46 -32 -72 -58 -37 -36 -48 -53 -48 -78 0 -17
-7 -37 -15 -44 -31 -26 -7 -90 34 -90 17 0 20 4 15 24 -4 16 2 32 19 52 25 29
26 29 144 30 186 2 258 26 251 82 -2 18 -18 33 -57 55 -47 27 -64 31 -150 34
-53 1 -107 -2 -121 -7z"/>
<path d="M8781 3876 c-14 -17 -8 -46 9 -46 16 0 23 26 13 45 -9 15 -11 15 -22
1z"/>
<path d="M3927 2214 c-19 -19 -41 -28 -79 -33 -43 -5 -53 -10 -56 -26 -1 -11
2 -27 8 -35 8 -13 13 -13 39 3 19 11 50 17 90 17 61 0 61 0 61 29 0 20 6 30
20 34 11 3 20 12 20 21 0 28 -72 21 -103 -10z"/>
<path d="M2995 2209 c-10 -16 26 -50 49 -47 31 4 33 44 4 52 -33 8 -46 7 -53
-5z"/>
<path d="M4213 2042 l-38 -34 33 -29 c17 -16 32 -32 32 -37 0 -7 60 -67 123
-122 17 -15 45 -26 75 -30 45 -5 47 -6 47 -38 0 -38 17 -52 65 -52 23 0 39 6
46 18 7 10 30 24 52 30 23 7 44 17 47 23 12 18 -17 39 -52 39 -47 0 -72 16
-89 56 -13 32 -34 46 -34 24 0 -17 -20 -11 -26 8 -18 56 -29 72 -55 83 -17 6
-43 31 -59 54 -28 41 -31 43 -80 42 -43 -1 -56 -6 -87 -35z m95 -69 c-3 -30
-25 -42 -34 -19 -9 22 2 46 21 46 12 0 15 -8 13 -27z"/>
<path d="M3495 1806 c-16 -12 -17 -16 -6 -30 7 -9 24 -16 37 -16 31 0 38 -15
24 -50 -10 -25 -10 -32 4 -45 26 -26 21 -101 -9 -137 -14 -16 -25 -36 -25 -44
0 -8 -16 -22 -35 -31 -19 -9 -35 -19 -36 -22 0 -3 -2 -17 -4 -31 -2 -14 -7
-46 -11 -72 -8 -55 1 -98 20 -98 8 0 39 27 69 60 l56 60 53 -11 c29 -6 67 -18
85 -27 18 -9 35 -13 39 -9 4 4 -10 31 -30 61 -48 70 -45 90 12 94 36 3 51 -3
91 -31 67 -48 219 -108 299 -118 37 -4 89 -15 116 -23 57 -19 92 -20 101 -6
15 24 -59 70 -111 70 -39 0 -148 57 -183 95 -17 19 -40 35 -50 35 -10 0 -39
11 -65 25 -26 14 -62 25 -81 25 -25 0 -39 7 -54 28 -12 15 -33 40 -47 55 -14
16 -40 52 -59 81 -48 76 -107 126 -148 126 -18 0 -42 -6 -52 -14z"/>
<path d="M5452 1479 c2 -7 10 -15 17 -17 8 -3 12 1 9 9 -2 7 -10 15 -17 17 -8
3 -12 -1 -9 -9z"/>
<path d="M5413 1351 c-13 -11 -23 -24 -23 -30 0 -19 49 -12 60 8 22 43 2 55
-37 22z"/>
<path d="M3828 1269 c-18 -10 -25 -54 -10 -62 4 -2 22 0 40 5 25 7 32 14 32
32 0 33 -29 44 -62 25z"/>
<path d="M3930 1175 c0 -9 12 -23 28 -32 15 -9 36 -30 47 -47 13 -20 30 -32
48 -34 57 -7 20 56 -64 106 -43 26 -59 28 -59 7z"/>
<path d="M4147 1053 c-4 -3 -7 -21 -7 -39 0 -23 8 -38 26 -53 57 -45 82 -13
50 64 -11 26 -21 35 -39 35 -13 0 -27 -3 -30 -7z"/>
<path d="M4240 910 c0 -13 38 -36 73 -44 31 -7 34 0 11 32 -11 15 -25 22 -50
22 -19 0 -34 -4 -34 -10z"/>
<path d="M4424 715 c-3 -14 -4 -31 -1 -39 7 -17 78 -39 110 -34 62 9 -1 98
-69 98 -28 0 -35 -4 -40 -25z"/>
<path d="M4595 600 c-16 -26 55 -120 90 -120 14 0 25 22 25 49 0 35 -99 96
-115 71z"/>
<path d="M4679 439 c-9 -17 -7 -25 13 -46 12 -14 39 -33 60 -44 40 -20 51 -15
62 31 8 31 0 42 -43 63 -46 23 -78 21 -92 -4z"/>
<path d="M8304 93 c-7 -25 10 -53 32 -53 8 0 14 -9 14 -20 0 -19 6 -20 88 -19
l87 1 -43 15 c-34 12 -43 19 -39 34 8 31 -16 50 -76 58 -55 7 -58 7 -63 -16z"/>
</g>
</svg>
